{
.appVersion = "895";
DisplayStrings = (
"/pi iop[]IOP{"
);
copyright = "SIL OPEN FONT LICENSE Version 1.1";
date = "2017-02-18 05:44:20 +0000";
designer = "Trevor Bullock";
familyName = "KA EZ Martyria";
fontMaster = (
{
ascender = 800;
capHeight = 700;
descender = -200;
id = "E15E8026-84DF-4A42-AB03-E490DF4AD233";
xHeight = 500;
}
);
glyphs = (
{
glyphname = P;
lastChange = "2019-03-12 05:03:58 +0000";
layers = (
{
components = (
{
name = barus;
transform = "{1, 0, 0, 1, 0, 490}";
}
);
layerId = "E15E8026-84DF-4A42-AB03-E490DF4AD233";
paths = (
{
closed = 1;
nodes = (
"928 307 LINE SMOOTH",
"946 307 OFFCURVE",
"947 346 OFFCURVE",
"928 346 CURVE SMOOTH",
"45 346 LINE SMOOTH",
"25 346 OFFCURVE",
"24 307 OFFCURVE",
"45 307 CURVE SMOOTH"
);
},
{
closed = 1;
nodes = (
"450 186 OFFCURVE",
"461 197 OFFCURVE",
"461 219 CURVE SMOOTH",
"461 241 OFFCURVE",
"450 252 OFFCURVE",
"429 252 CURVE SMOOTH",
"406 252 OFFCURVE",
"395 241 OFFCURVE",
"395 219 CURVE SMOOTH",
"395 197 OFFCURVE",
"406 186 OFFCURVE",
"429 186 CURVE SMOOTH"
);
},
{
closed = 1;
nodes = (
"685 186 OFFCURVE",
"697 197 OFFCURVE",
"697 219 CURVE SMOOTH",
"697 241 OFFCURVE",
"685 252 OFFCURVE",
"663 252 CURVE SMOOTH",
"641 252 OFFCURVE",
"630 241 OFFCURVE",
"630 219 CURVE SMOOTH",
"630 197 OFFCURVE",
"641 186 OFFCURVE",
"663 186 CURVE SMOOTH"
);
}
);
width = 993;
}
);
unicode = 0050;
},
{
glyphname = a;
lastChange = "2019-03-12 04:44:31 +0000";
layers = (
{
layerId = "E15E8026-84DF-4A42-AB03-E490DF4AD233";
paths = (
{
closed = 1;
nodes = (
"71 -160 OFFCURVE",
"70 -182 OFFCURVE",
"77 -207 CURVE SMOOTH",
"93 -264 OFFCURVE",
"154 -286 OFFCURVE",
"202 -293 CURVE SMOOTH",
"272 -303 OFFCURVE",
"355 -301 OFFCURVE",
"447 -289 CURVE SMOOTH",
"493 -283 OFFCURVE",
"560 -278 OFFCURVE",
"650 -273 CURVE SMOOTH",
"708 -270 OFFCURVE",
"684 -326 OFFCURVE",
"666 -328 CURVE SMOOTH",
"657 -329 OFFCURVE",
"648 -336 OFFCURVE",
"642 -350 CURVE SMOOTH",
"630 -379 OFFCURVE",
"652 -403 OFFCURVE",
"668 -405 CURVE SMOOTH",
"701 -409 OFFCURVE",
"720 -388 OFFCURVE",
"725 -346 CURVE SMOOTH",
"731 -296 OFFCURVE",
"709 -244 OFFCURVE",
"647 -241 CURVE SMOOTH",
"600 -239 OFFCURVE",
"556 -243 OFFCURVE",
"515 -246 CURVE SMOOTH",
"447 -251 OFFCURVE",
"393 -258 OFFCURVE",
"353 -262 CURVE SMOOTH",
"313 -266 OFFCURVE",
"258 -267 OFFCURVE",
"188 -261 CURVE SMOOTH",
"122 -255 OFFCURVE",
"123 -221 OFFCURVE",
"143 -195 CURVE SMOOTH",
"156 -178 OFFCURVE",
"161 -160 OFFCURVE",
"159 -145 CURVE SMOOTH",
"157 -129 OFFCURVE",
"153 -120 OFFCURVE",
"129 -117 CURVE SMOOTH",
"108 -114 OFFCURVE",
"86 -120 OFFCURVE",
"78 -141 CURVE SMOOTH"
);
}
);
width = 806;
}
);
unicode = 0061;
},
{
glyphname = e;
lastChange = "2019-03-12 04:39:55 +0000";
layers = (
{
layerId = "E15E8026-84DF-4A42-AB03-E490DF4AD233";
paths = (
{
closed = 1;
nodes = (
"407 -546 OFFCURVE",
"418 -545 OFFCURVE",
"419 -540 CURVE SMOOTH",
"421 -531 OFFCURVE",
"411 -523 OFFCURVE",
"390 -514 CURVE SMOOTH",
"368 -505 OFFCURVE",
"357 -478 OFFCURVE",
"357 -430 CURVE SMOOTH",
"357 -332 OFFCURVE",
"352 -269 OFFCURVE",
"343 -242 CURVE SMOOTH",
"325 -188 OFFCURVE",
"264 -154 OFFCURVE",
"219 -153 CURVE SMOOTH",
"175 -152 OFFCURVE",
"130 -161 OFFCURVE",
"130 -217 CURVE SMOOTH",
"130 -229 OFFCURVE",
"135 -238 OFFCURVE",
"144 -247 CURVE SMOOTH",
"162 -265 OFFCURVE",
"217 -252 OFFCURVE",
"195 -211 CURVE SMOOTH",
"184 -191 OFFCURVE",
"190 -178 OFFCURVE",
"213 -173 CURVE SMOOTH",
"249 -165 OFFCURVE",
"270 -181 OFFCURVE",
"275 -222 CURVE SMOOTH",
"280 -263 OFFCURVE",
"279 -315 OFFCURVE",
"272 -379 CURVE SMOOTH",
"268 -418 OFFCURVE",
"272 -450 OFFCURVE",
"286 -473 CURVE SMOOTH",
"314 -520 OFFCURVE",
"355 -543 OFFCURVE",
"390 -545 CURVE SMOOTH"
);
},
{
closed = 1;
nodes = (
"663 -546 OFFCURVE",
"674 -545 OFFCURVE",
"675 -540 CURVE SMOOTH",
"677 -531 OFFCURVE",
"667 -523 OFFCURVE",
"646 -514 CURVE SMOOTH",
"625 -505 OFFCURVE",
"614 -478 OFFCURVE",
"614 -430 CURVE SMOOTH",
"614 -332 OFFCURVE",
"609 -269 OFFCURVE",
"599 -242 CURVE SMOOTH",
"589 -216 OFFCURVE",
"568 -192 OFFCURVE",
"535 -170 CURVE SMOOTH",
"518 -159 OFFCURVE",
"499 -154 OFFCURVE",
"476 -153 CURVE SMOOTH",
"432 -151 OFFCURVE",
"387 -161 OFFCURVE",
"387 -217 CURVE SMOOTH",
"387 -229 OFFCURVE",
"391 -238 OFFCURVE",
"401 -247 CURVE SMOOTH",
"420 -264 OFFCURVE",
"474 -252 OFFCURVE",
"452 -211 CURVE SMOOTH",
"441 -191 OFFCURVE",
"447 -178 OFFCURVE",
"470 -173 CURVE SMOOTH",
"506 -165 OFFCURVE",
"527 -181 OFFCURVE",
"532 -222 CURVE SMOOTH",
"537 -263 OFFCURVE",
"536 -315 OFFCURVE",
"528 -379 CURVE SMOOTH",
"523 -418 OFFCURVE",
"529 -450 OFFCURVE",
"543 -473 CURVE SMOOTH",
"571 -519 OFFCURVE",
"611 -543 OFFCURVE",
"646 -545 CURVE SMOOTH"
);
}
);
width = 806;
}
);
unicode = 0065;
},
{
glyphname = f;
lastChange = "2019-03-12 04:41:46 +0000";
layers = (
{
layerId = "E15E8026-84DF-4A42-AB03-E490DF4AD233";
paths = (
{
closed = 1;
nodes = (
"349 -374 OFFCURVE",
"373 -382 OFFCURVE",
"399 -382 CURVE SMOOTH",
"460 -382 OFFCURVE",
"508 -333 OFFCURVE",
"508 -273 CURVE SMOOTH",
"508 -248 OFFCURVE",
"501 -226 OFFCURVE",
"485 -206 CURVE",
"532 -161 LINE",
"577 -206 LINE SMOOTH",
"588 -217 OFFCURVE",
"607 -200 OFFCURVE",
"595 -189 CURVE",
"550 -143 LINE",
"568 -127 LINE",
"595 -101 LINE",
"609 -86 OFFCURVE",
"589 -67 OFFCURVE",
"576 -81 CURVE",
"565 -93 LINE",
"533 -126 LINE",
"487 -79 LINE SMOOTH",
"477 -68 OFFCURVE",
"457 -83 OFFCURVE",
"469 -96 CURVE SMOOTH",
"515 -143 LINE",
"469 -189 LINE",
"449 -172 OFFCURVE",
"426 -164 OFFCURVE",
"399 -164 CURVE SMOOTH",
"339 -164 OFFCURVE",
"290 -213 OFFCURVE",
"290 -273 CURVE SMOOTH",
"290 -298 OFFCURVE",
"298 -320 OFFCURVE",
"313 -339 CURVE",
"236 -415 LINE",
"209 -440 LINE",
"195 -455 OFFCURVE",
"214 -474 OFFCURVE",
"227 -460 CURVE SMOOTH",
"238 -448 LINE",
"329 -357 LINE"
);
},
{
closed = 1;
nodes = (
"353 -359 OFFCURVE",
"314 -320 OFFCURVE",
"314 -273 CURVE SMOOTH",
"314 -226 OFFCURVE",
"353 -187 OFFCURVE",
"399 -187 CURVE SMOOTH",
"447 -187 OFFCURVE",
"485 -226 OFFCURVE",
"485 -273 CURVE SMOOTH",
"485 -320 OFFCURVE",
"447 -359 OFFCURVE",
"399 -359 CURVE SMOOTH"
);
}
);
width = 806;
}
);
unicode = 0066;
},
{
glyphname = h;
lastChange = "2019-03-12 04:42:22 +0000";
layers = (
{
layerId = "E15E8026-84DF-4A42-AB03-E490DF4AD233";
paths = (
{
closed = 1;
nodes = (
"481 -154 OFFCURVE",
"461 -149 OFFCURVE",
"438 -149 CURVE SMOOTH",
"379 -149 OFFCURVE",
"330 -198 OFFCURVE",
"330 -257 CURVE SMOOTH",
"330 -291 OFFCURVE",
"342 -318 OFFCURVE",
"368 -340 CURVE",
"296 -433 LINE SMOOTH",
"276 -458 OFFCURVE",
"230 -473 OFFCURVE",
"211 -460 CURVE SMOOTH",
"204 -455 OFFCURVE",
"208 -448 OFFCURVE",
"220 -437 CURVE SMOOTH",
"235 -423 OFFCURVE",
"234 -393 OFFCURVE",
"218 -383 CURVE SMOOTH",
"195 -369 OFFCURVE",
"176 -369 OFFCURVE",
"162 -389 CURVE SMOOTH",
"137 -425 OFFCURVE",
"161 -463 OFFCURVE",
"200 -479 CURVE SMOOTH",
"217 -486 OFFCURVE",
"253 -489 OFFCURVE",
"268 -481 CURVE",
"281 -474 OFFCURVE",
"303 -463 OFFCURVE",
"320 -441 CURVE SMOOTH",
"387 -354 LINE",
"404 -362 OFFCURVE",
"421 -367 OFFCURVE",
"438 -367 CURVE SMOOTH",
"499 -367 OFFCURVE",
"547 -318 OFFCURVE",
"547 -257 CURVE SMOOTH",
"547 -229 OFFCURVE",
"537 -203 OFFCURVE",
"517 -182 CURVE",
"569 -114 LINE",
"592 -84 LINE",
"603 -68 OFFCURVE",
"581 -51 OFFCURVE",
"570 -67 CURVE",
"562 -81 LINE",
"499 -166 LINE"
);
},
{
closed = 1;
nodes = (
"486 -172 OFFCURVE",
"524 -211 OFFCURVE",
"524 -257 CURVE SMOOTH",
"524 -305 OFFCURVE",
"486 -343 OFFCURVE",
"438 -343 CURVE SMOOTH",
"392 -343 OFFCURVE",
"353 -305 OFFCURVE",
"353 -257 CURVE SMOOTH",
"353 -211 OFFCURVE",
"392 -172 OFFCURVE",
"438 -172 CURVE SMOOTH"
);
}
);
width = 806;
}
);
unicode = 0068;
},
{
glyphname = j;
lastChange = "2019-03-12 04:42:40 +0000";
layers = (
{
layerId = "E15E8026-84DF-4A42-AB03-E490DF4AD233";
paths = (
{
closed = 1;
nodes = (
"318 -197 OFFCURVE",
"360 -157 OFFCURVE",
"411 -157 CURVE SMOOTH",
"463 -157 OFFCURVE",
"504 -197 OFFCURVE",
"508 -247 CURVE",
"313 -247 LINE"
);
},
{
closed = 1;
nodes = (
"503 -316 OFFCURVE",
"462 -354 OFFCURVE",
"411 -354 CURVE SMOOTH",
"359 -354 OFFCURVE",
"316 -317 OFFCURVE",
"313 -265 CURVE",
"508 -265 LINE"
);
},
{
closed = 1;
nodes = (
"635 -170 OFFCURVE",
"631 -166 OFFCURVE",
"625 -166 CURVE SMOOTH",
"621 -166 LINE SMOOTH",
"615 -166 OFFCURVE",
"612 -170 OFFCURVE",
"612 -179 CURVE SMOOTH",
"612 -249 LINE",
"598 -249 OFFCURVE",
"584 -249 OFFCURVE",
"572 -248 CURVE",
"560 -247 OFFCURVE",
"547 -246 OFFCURVE",
"533 -246 CURVE",
"528 -184 OFFCURVE",
"475 -133 OFFCURVE",
"411 -133 CURVE SMOOTH",
"346 -133 OFFCURVE",
"293 -184 OFFCURVE",
"288 -246 CURVE",
"251 -246 OFFCURVE",
"214 -247 OFFCURVE",
"177 -248 CURVE SMOOTH",
"140 -249 OFFCURVE",
"104 -249 OFFCURVE",
"67 -249 CURVE SMOOTH",
"62 -249 OFFCURVE",
"51 -251 OFFCURVE",
"51 -254 CURVE SMOOTH",
"51 -265 LINE SMOOTH",
"51 -268 OFFCURVE",
"62 -269 OFFCURVE",
"67 -269 CURVE SMOOTH",
"104 -269 OFFCURVE",
"137 -269 OFFCURVE",
"167 -267 CURVE SMOOTH",
"197 -265 OFFCURVE",
"237 -265 OFFCURVE",
"288 -265 CURVE",
"292 -330 OFFCURVE",
"346 -379 OFFCURVE",
"411 -379 CURVE SMOOTH",
"476 -379 OFFCURVE",
"529 -330 OFFCURVE",
"533 -265 CURVE",
"547 -265 OFFCURVE",
"562 -265 OFFCURVE",
"576 -266 CURVE SMOOTH",
"591 -267 OFFCURVE",
"603 -267 OFFCURVE",
"612 -267 CURVE",
"612 -340 LINE SMOOTH",
"612 -349 OFFCURVE",
"615 -353 OFFCURVE",
"621 -353 CURVE SMOOTH",
"625 -353 LINE SMOOTH",
"631 -353 OFFCURVE",
"635 -349 OFFCURVE",
"635 -340 CURVE SMOOTH",
"635 -268 LINE",
"667 -269 OFFCURVE",
"677 -269 OFFCURVE",
"711 -273 CURVE SMOOTH",
"747 -277 OFFCURVE",
"788 -296 OFFCURVE",
"788 -321 CURVE SMOOTH",
"788 -326 OFFCURVE",
"787 -330 OFFCURVE",
"783 -331 CURVE SMOOTH",
"780 -332 OFFCURVE",
"773 -331 OFFCURVE",
"761 -329 CURVE SMOOTH",
"739 -325 OFFCURVE",
"715 -343 OFFCURVE",
"715 -363 CURVE SMOOTH",
"715 -393 OFFCURVE",
"728 -408 OFFCURVE",
"755 -408 CURVE SMOOTH",
"802 -408 OFFCURVE",
"820 -367 OFFCURVE",
"811 -322 CURVE SMOOTH",
"807 -301 OFFCURVE",
"787 -282 OFFCURVE",
"769 -273 CURVE",
"753 -268 OFFCURVE",
"727 -257 OFFCURVE",
"702 -255 CURVE SMOOTH",
"691 -254 OFFCURVE",
"681 -253 OFFCURVE",
"673 -253 CURVE",
"664 -252 OFFCURVE",
"651 -251 OFFCURVE",
"633 -250 CURVE",
"635 -179 LINE SMOOTH"
);
}
);
width = 806;
}
);
unicode = 006A;
},
{
glyphname = q;
lastChange = "2019-03-12 04:39:55 +0000";
layers = (
{
layerId = "E15E8026-84DF-4A42-AB03-E490DF4AD233";
paths = (
{
closed = 1;
nodes = (
"485 -606 OFFCURVE",
"502 -604 OFFCURVE",
"510 -597 CURVE",
"517 -591 OFFCURVE",
"520 -572 OFFCURVE",
"520 -556 CURVE SMOOTH",
"520 -410 OFFCURVE",
"525 -310 OFFCURVE",
"528 -258 CURVE SMOOTH",
"531 -206 OFFCURVE",
"532 -147 OFFCURVE",
"527 -144 CURVE SMOOTH",
"522 -141 OFFCURVE",
"498 -141 OFFCURVE",
"494 -144 CURVE SMOOTH",
"489 -148 OFFCURVE",
"488 -177 OFFCURVE",
"487 -193 CURVE",
"453 -140 OFFCURVE",
"363 -134 OFFCURVE",
"318 -171 CURVE SMOOTH",
"273 -208 OFFCURVE",
"266 -279 OFFCURVE",
"301 -327 CURVE SMOOTH",
"336 -375 OFFCURVE",
"436 -389 OFFCURVE",
"482 -325 CURVE",
"479 -391 OFFCURVE",
"478 -427 OFFCURVE",
"468 -493 CURVE SMOOTH",
"463 -526 OFFCURVE",
"461 -541 OFFCURVE",
"461 -556 CURVE SMOOTH",
"461 -571 OFFCURVE",
"464 -593 OFFCURVE",
"472 -598 CURVE SMOOTH"
);
},
{
closed = 1;
nodes = (
"330 -338 OFFCURVE",
"319 -283 OFFCURVE",
"341 -235 CURVE SMOOTH",
"363 -187 OFFCURVE",
"398 -159 OFFCURVE",
"430 -174 CURVE SMOOTH",
"464 -190 OFFCURVE",
"474 -226 OFFCURVE",
"459 -287 CURVE SMOOTH",
"444 -349 OFFCURVE",
"405 -362 OFFCURVE",
"361 -348 CURVE SMOOTH"
);
}
);
width = 806;
}
);
unicode = 0071;
},
{
glyphname = s;
lastChange = "2019-03-12 04:41:21 +0000";
layers = (
{
layerId = "E15E8026-84DF-4A42-AB03-E490DF4AD233";
paths = (
{
closed = 1;
nodes = (
"310 -368 OFFCURVE",
"223 -454 OFFCURVE",
"209 -467 CURVE SMOOTH",
"194 -481 OFFCURVE",
"216 -504 OFFCURVE",
"231 -489 CURVE SMOOTH",
"336 -381 LINE",
"358 -399 OFFCURVE",
"382 -408 OFFCURVE",
"410 -408 CURVE SMOOTH",
"474 -408 OFFCURVE",
"527 -356 OFFCURVE",
"527 -291 CURVE SMOOTH",
"527 -264 OFFCURVE",
"518 -241 OFFCURVE",
"502 -220 CURVE",
"612 -109 LINE SMOOTH",
"625 -96 OFFCURVE",
"606 -78 OFFCURVE",
"594 -90 CURVE SMOOTH",
"483 -201 LINE",
"461 -183 OFFCURVE",
"437 -175 OFFCURVE",
"410 -175 CURVE SMOOTH",
"346 -175 OFFCURVE",
"294 -227 OFFCURVE",
"294 -291 CURVE SMOOTH",
"294 -318 OFFCURVE",
"302 -341 OFFCURVE",
"318 -361 CURVE"
);
},
{
closed = 1;
nodes = (
"459 -203 OFFCURVE",
"499 -243 OFFCURVE",
"499 -291 CURVE SMOOTH",
"499 -341 OFFCURVE",
"459 -380 OFFCURVE",
"410 -380 CURVE SMOOTH",
"361 -380 OFFCURVE",
"322 -341 OFFCURVE",
"322 -291 CURVE SMOOTH",
"322 -243 OFFCURVE",
"361 -203 OFFCURVE",
"410 -203 CURVE SMOOTH"
);
}
);
width = 806;
}
);
unicode = 0073;
},
{
glyphname = u;
lastChange = "2019-03-12 04:39:55 +0000";
layers = (
{
layerId = "E15E8026-84DF-4A42-AB03-E490DF4AD233";
paths = (
{
closed = 1;
nodes = (
"593 -619 OFFCURVE",
"590 -618 OFFCURVE",
"586 -616 CURVE SMOOTH",
"551 -599 OFFCURVE",
"548 -575 OFFCURVE",
"547 -562 CURVE",
"544 -542 OFFCURVE",
"543 -523 OFFCURVE",
"546 -503 CURVE SMOOTH",
"552 -463 OFFCURVE",
"557 -399 OFFCURVE",
"515 -387 CURVE SMOOTH",
"494 -381 OFFCURVE",
"479 -379 OFFCURVE",
"475 -372 CURVE SMOOTH",
"468 -359 OFFCURVE",
"466 -343 OFFCURVE",
"466 -322 CURVE SMOOTH",
"462 -274 OFFCURVE",
"470 -238 OFFCURVE",
"462 -219 CURVE SMOOTH",
"449 -188 OFFCURVE",
"423 -174 OFFCURVE",
"391 -174 CURVE SMOOTH",
"376 -174 OFFCURVE",
"360 -175 OFFCURVE",
"341 -179 CURVE SMOOTH",
"303 -187 OFFCURVE",
"274 -231 OFFCURVE",
"274 -286 CURVE SMOOTH",
"274 -315 OFFCURVE",
"275 -335 OFFCURVE",
"277 -346 CURVE SMOOTH",
"286 -403 OFFCURVE",
"289 -441 OFFCURVE",
"288 -458 CURVE SMOOTH",
"286 -493 OFFCURVE",
"278 -511 OFFCURVE",
"236 -533 CURVE SMOOTH",
"200 -552 OFFCURVE",
"180 -552 OFFCURVE",
"175 -533 CURVE SMOOTH",
"165 -494 OFFCURVE",
"175 -440 OFFCURVE",
"221 -407 CURVE SMOOTH",
"238 -395 OFFCURVE",
"253 -389 OFFCURVE",
"267 -387 CURVE SMOOTH",
"281 -385 OFFCURVE",
"279 -381 OFFCURVE",
"262 -374 CURVE SMOOTH",
"242 -366 OFFCURVE",
"209 -370 OFFCURVE",
"184 -385 CURVE SMOOTH",
"155 -402 OFFCURVE",
"134 -426 OFFCURVE",
"124 -467 CURVE SMOOTH",
"118 -492 OFFCURVE",
"119 -515 OFFCURVE",
"126 -537 CURVE SMOOTH",
"130 -550 OFFCURVE",
"137 -560 OFFCURVE",
"147 -569 CURVE SMOOTH",
"182 -600 OFFCURVE",
"213 -608 OFFCURVE",
"258 -583 CURVE SMOOTH",
"281 -570 OFFCURVE",
"296 -556 OFFCURVE",
"301 -537 CURVE SMOOTH",
"311 -499 OFFCURVE",
"307 -451 OFFCURVE",
"302 -345 CURVE SMOOTH",
"301 -317 OFFCURVE",
"304 -267 OFFCURVE",
"316 -250 CURVE SMOOTH",
"322 -242 OFFCURVE",
"334 -238 OFFCURVE",
"349 -239 CURVE SMOOTH",
"381 -241 OFFCURVE",
"406 -237 OFFCURVE",
"394 -295 CURVE",
"390 -331 OFFCURVE",
"395 -357 OFFCURVE",
"407 -373 CURVE SMOOTH",
"419 -388 OFFCURVE",
"432 -395 OFFCURVE",
"446 -398 CURVE SMOOTH",
"461 -401 OFFCURVE",
"470 -415 OFFCURVE",
"471 -439 CURVE SMOOTH",
"472 -458 OFFCURVE",
"473 -476 OFFCURVE",
"471 -495 CURVE SMOOTH",
"467 -532 OFFCURVE",
"473 -587 OFFCURVE",
"522 -611 CURVE SMOOTH",
"532 -616 OFFCURVE",
"595 -624 OFFCURVE",
"595 -619 CURVE"
);
}
);
width = 806;
}
);
unicode = 0075;
},
{
glyphname = w;
lastChange = "2019-03-12 04:39:55 +0000";
layers = (
{
layerId = "E15E8026-84DF-4A42-AB03-E490DF4AD233";
paths = (
{
closed = 1;
nodes = (
"562 -529 OFFCURVE",
"571 -524 OFFCURVE",
"566 -511 CURVE",
"534 -507 OFFCURVE",
"515 -498 OFFCURVE",
"507 -482 CURVE SMOOTH",
"492 -451 OFFCURVE",
"499 -416 OFFCURVE",
"514 -388 CURVE SMOOTH",
"529 -361 OFFCURVE",
"537 -346 OFFCURVE",
"546 -348 CURVE SMOOTH",
"550 -349 OFFCURVE",
"552 -346 OFFCURVE",
"549 -340 CURVE SMOOTH",
"543 -328 OFFCURVE",
"525 -323 OFFCURVE",
"497 -328 CURVE SMOOTH",
"485 -330 OFFCURVE",
"474 -346 OFFCURVE",
"464 -374 CURVE SMOOTH",
"454 -403 OFFCURVE",
"449 -416 OFFCURVE",
"448 -416 CURVE",
"311 -199 LINE SMOOTH",
"288 -162 OFFCURVE",
"258 -143 OFFCURVE",
"227 -139 CURVE SMOOTH",
"164 -131 OFFCURVE",
"134 -158 OFFCURVE",
"137 -205 CURVE SMOOTH",
"141 -267 OFFCURVE",
"203 -243 OFFCURVE",
"202 -220 CURVE SMOOTH",
"200 -163 OFFCURVE",
"215 -146 OFFCURVE",
"250 -169 CURVE SMOOTH",
"285 -192 OFFCURVE",
"313 -231 OFFCURVE",
"333 -284 CURVE",
"233 -516 LINE",
"297 -517 LINE",
"365 -331 LINE",
"445 -453 LINE SMOOTH",
"480 -506 OFFCURVE",
"504 -514 OFFCURVE",
"538 -523 CURVE SMOOTH"
);
}
);
width = 806;
}
);
unicode = 0077;
},
{
glyphname = one;
lastChange = "2019-03-12 04:46:37 +0000";
layers = (
{
layerId = "E15E8026-84DF-4A42-AB03-E490DF4AD233";
paths = (
{
closed = 1;
nodes = (
"326 -538 OFFCURVE",
"338 -525 OFFCURVE",
"344 -502 CURVE SMOOTH",
"359 -446 OFFCURVE",
"362 -430 OFFCURVE",
"367 -338 CURVE",
"445 -342 LINE",
"421 -386 OFFCURVE",
"437 -461 OFFCURVE",
"453 -508 CURVE SMOOTH",
"463 -537 OFFCURVE",
"494 -550 OFFCURVE",
"522 -522 CURVE SMOOTH",
"541 -503 OFFCURVE",
"543 -470 OFFCURVE",
"540 -447 CURVE",
"526 -449 OFFCURVE",
"510 -453 OFFCURVE",
"492 -459 CURVE SMOOTH",
"474 -465 OFFCURVE",
"461 -459 OFFCURVE",
"457 -441 CURVE SMOOTH",
"447 -397 OFFCURVE",
"449 -387 OFFCURVE",
"460 -359 CURVE SMOOTH",
"464 -349 OFFCURVE",
"476 -344 OFFCURVE",
"496 -345 CURVE SMOOTH",
"515 -346 OFFCURVE",
"529 -348 OFFCURVE",
"538 -348 CURVE",
"547 -325 OFFCURVE",
"544 -308 OFFCURVE",
"539 -272 CURVE",
"508 -272 OFFCURVE",
"475 -270 OFFCURVE",
"439 -267 CURVE SMOOTH",
"403 -264 OFFCURVE",
"369 -263 OFFCURVE",
"338 -263 CURVE SMOOTH",
"303 -263 OFFCURVE",
"291 -276 OFFCURVE",
"279 -306 CURVE SMOOTH",
"273 -321 OFFCURVE",
"267 -342 OFFCURVE",
"263 -372 CURVE",
"273 -372 LINE",
"291 -345 OFFCURVE",
"309 -338 OFFCURVE",
"333 -338 CURVE SMOOTH",
"362 -338 OFFCURVE",
"342 -418 OFFCURVE",
"333 -437 CURVE SMOOTH",
"329 -446 OFFCURVE",
"323 -453 OFFCURVE",
"318 -458 CURVE SMOOTH",
"312 -464 OFFCURVE",
"300 -477 OFFCURVE",
"292 -486 CURVE SMOOTH",
"282 -498 OFFCURVE",
"283 -507 OFFCURVE",
"283 -512 CURVE SMOOTH",
"283 -527 OFFCURVE",
"295 -538 OFFCURVE",
"309 -538 CURVE SMOOTH"
);
}
);
width = 806;
}
);
unicode = 0031;
},
{
glyphname = two;
lastChange = "2019-03-12 04:47:05 +0000";
layers = (
{
layerId = "E15E8026-84DF-4A42-AB03-E490DF4AD233";
paths = (
{
closed = 1;
nodes = (
"467 -577 OFFCURVE",
"483 -534 OFFCURVE",
"490 -478 CURVE SMOOTH",
"499 -404 OFFCURVE",
"394 -354 OFFCURVE",
"325 -422 CURVE",
"325 -399 OFFCURVE",
"328 -355 OFFCURVE",
"351 -314 CURVE",
"363 -316 OFFCURVE",
"375 -319 OFFCURVE",
"389 -324 CURVE SMOOTH",
"403 -329 OFFCURVE",
"420 -331 OFFCURVE",
"441 -330 CURVE SMOOTH",
"489 -328 OFFCURVE",
"512 -226 OFFCURVE",
"431 -225 CURVE SMOOTH",
"342 -224 OFFCURVE",
"290 -355 OFFCURVE",
"290 -460 CURVE SMOOTH",
"290 -524 OFFCURVE",
"314 -572 OFFCURVE",
"373 -574 CURVE SMOOTH"
);
},
{
closed = 1;
nodes = (
"374 -552 OFFCURVE",
"327 -562 OFFCURVE",
"346 -486 CURVE SMOOTH",
"356 -446 OFFCURVE",
"386 -415 OFFCURVE",
"409 -418 CURVE SMOOTH",
"423 -420 OFFCURVE",
"433 -428 OFFCURVE",
"438 -440 CURVE SMOOTH",
"448 -463 OFFCURVE",
"427 -516 OFFCURVE",
"401 -534 CURVE SMOOTH"
);
},
{
closed = 1;
nodes = (
"419 -305 OFFCURVE",
"396 -310 OFFCURVE",
"382 -278 CURVE",
"403 -260 OFFCURVE",
"418 -250 OFFCURVE",
"443 -258 CURVE SMOOTH",
"459 -263 OFFCURVE",
"451 -301 OFFCURVE",
"435 -303 CURVE SMOOTH"
);
}
);
width = 806;
}
);
unicode = 0032;
},
{
glyphname = three;
lastChange = "2019-03-12 04:47:58 +0000";
layers = (
{
layerId = "E15E8026-84DF-4A42-AB03-E490DF4AD233";
paths = (
{
closed = 1;
nodes = (
"330 -531 LINE",
"330 -314 LINE",
"389 -309 OFFCURVE",
"425 -307 OFFCURVE",
"438 -305 CURVE SMOOTH",
"463 -301 OFFCURVE",
"539 -294 OFFCURVE",
"539 -244 CURVE SMOOTH",
"539 -194 OFFCURVE",
"464 -189 OFFCURVE",
"472 -250 CURVE SMOOTH",
"475 -273 LINE",
"434 -282 LINE SMOOTH",
"406 -288 OFFCURVE",
"350 -292 OFFCURVE",
"267 -292 CURVE",
"267 -531 LINE"
);
}
);
width = 806;
}
);
unicode = 0033;
},
{
glyphname = four;
lastChange = "2019-03-12 04:48:27 +0000";
layers = (
{
layerId = "E15E8026-84DF-4A42-AB03-E490DF4AD233";
paths = (
{
closed = 1;
nodes = (
"559 -524 LINE",
"411 -176 LINE",
"247 -524 LINE"
);
},
{
closed = 1;
nodes = (
"397 -268 LINE",
"489 -483 LINE",
"296 -483 LINE"
);
}
);
width = 806;
}
);
unicode = 0034;
},
{
glyphname = five;
lastChange = "2019-03-12 04:49:04 +0000";
layers = (
{
layerId = "E15E8026-84DF-4A42-AB03-E490DF4AD233";
paths = (
{
closed = 1;
nodes = (
"498 -539 OFFCURVE",
"516 -526 OFFCURVE",
"523 -518 CURVE SMOOTH",
"530 -510 OFFCURVE",
"540 -491 OFFCURVE",
"533 -466 CURVE SMOOTH",
"530 -455 OFFCURVE",
"504 -442 OFFCURVE",
"493 -461 CURVE SMOOTH",
"465 -510 OFFCURVE",
"445 -502 OFFCURVE",
"424 -467 CURVE SMOOTH",
"414 -450 OFFCURVE",
"408 -428 OFFCURVE",
"407 -402 CURVE",
"421 -379 OFFCURVE",
"436 -357 OFFCURVE",
"452 -335 CURVE SMOOTH",
"499 -269 LINE",
"445 -269 LINE",
"359 -395 LINE",
"364 -362 OFFCURVE",
"361 -339 OFFCURVE",
"357 -310 CURVE SMOOTH",
"353 -281 OFFCURVE",
"332 -261 OFFCURVE",
"311 -261 CURVE SMOOTH",
"275 -261 OFFCURVE",
"265 -286 OFFCURVE",
"271 -303 CURVE SMOOTH",
"277 -321 OFFCURVE",
"297 -323 OFFCURVE",
"305 -315 CURVE SMOOTH",
"309 -311 OFFCURVE",
"314 -309 OFFCURVE",
"320 -309 CURVE SMOOTH",
"340 -309 OFFCURVE",
"345 -331 OFFCURVE",
"346 -378 CURVE SMOOTH",
"347 -425 OFFCURVE",
"325 -450 OFFCURVE",
"303 -478 CURVE SMOOTH",
"292 -492 OFFCURVE",
"281 -508 OFFCURVE",
"270 -525 CURVE",
"323 -525 LINE",
"396 -419 LINE",
"399 -447 OFFCURVE",
"406 -467 OFFCURVE",
"410 -475 CURVE SMOOTH",
"429 -513 OFFCURVE",
"446 -533 OFFCURVE",
"480 -537 CURVE SMOOTH"
);
}
);
width = 806;
}
);
unicode = 0035;
},
{
glyphname = six;
lastChange = "2019-03-12 04:49:13 +0000";
layers = (
{
layerId = "E15E8026-84DF-4A42-AB03-E490DF4AD233";
paths = (
{
closed = 1;
nodes = (
"554 -565 OFFCURVE",
"580 -506 OFFCURVE",
"580 -473 CURVE SMOOTH",
"580 -444 OFFCURVE",
"575 -417 OFFCURVE",
"539 -421 CURVE SMOOTH",
"496 -426 OFFCURVE",
"514 -496 OFFCURVE",
"548 -477 CURVE",
"551 -474 OFFCURVE",
"553 -476 OFFCURVE",
"552 -482 CURVE SMOOTH",
"551 -488 OFFCURVE",
"551 -491 OFFCURVE",
"551 -492 CURVE",
"543 -511 OFFCURVE",
"533 -520 OFFCURVE",
"521 -520 CURVE SMOOTH",
"497 -520 OFFCURVE",
"471 -501 OFFCURVE",
"447 -481 CURVE SMOOTH",
"435 -471 OFFCURVE",
"425 -465 OFFCURVE",
"418 -465 CURVE SMOOTH",
"359 -465 OFFCURVE",
"339 -472 OFFCURVE",
"315 -486 CURVE",
"508 -279 LINE",
"520 -270 OFFCURVE",
"522 -241 OFFCURVE",
"508 -243 CURVE",
"499 -243 OFFCURVE",
"488 -247 OFFCURVE",
"476 -256 CURVE SMOOTH",
"471 -260 OFFCURVE",
"467 -264 OFFCURVE",
"463 -269 CURVE",
"459 -273 OFFCURVE",
"455 -276 OFFCURVE",
"452 -277 CURVE",
"444 -278 OFFCURVE",
"437 -280 OFFCURVE",
"428 -281 CURVE SMOOTH",
"411 -283 OFFCURVE",
"396 -279 OFFCURVE",
"379 -264 CURVE SMOOTH",
"371 -257 OFFCURVE",
"363 -250 OFFCURVE",
"354 -247 CURVE SMOOTH",
"329 -239 OFFCURVE",
"306 -242 OFFCURVE",
"284 -255 CURVE",
"283 -257 OFFCURVE",
"274 -267 OFFCURVE",
"259 -287 CURVE SMOOTH",
"228 -328 OFFCURVE",
"263 -312 OFFCURVE",
"277 -301 CURVE SMOOTH",
"283 -296 OFFCURVE",
"295 -294 OFFCURVE",
"309 -294 CURVE SMOOTH",
"317 -294 OFFCURVE",
"323 -297 OFFCURVE",
"327 -302 CURVE",
"331 -308 OFFCURVE",
"340 -315 OFFCURVE",
"355 -322 CURVE SMOOTH",
"367 -328 OFFCURVE",
"383 -328 OFFCURVE",
"401 -322 CURVE SMOOTH",
"419 -316 OFFCURVE",
"429 -315 OFFCURVE",
"429 -318 CURVE",
"229 -532 LINE",
"215 -549 OFFCURVE",
"250 -574 OFFCURVE",
"270 -549 CURVE",
"273 -546 OFFCURVE",
"275 -543 OFFCURVE",
"275 -541 CURVE SMOOTH",
"275 -539 OFFCURVE",
"278 -536 OFFCURVE",
"281 -534 CURVE SMOOTH",
"304 -519 OFFCURVE",
"321 -511 OFFCURVE",
"336 -513 CURVE SMOOTH",
"367 -517 OFFCURVE",
"392 -534 OFFCURVE",
"417 -552 CURVE SMOOTH",
"429 -561 OFFCURVE",
"443 -565 OFFCURVE",
"459 -565 CURVE SMOOTH"
);
}
);
width = 806;
}
);
unicode = 0036;
},
{
glyphname = seven;
lastChange = "2019-03-12 04:53:53 +0000";
layers = (
{
layerId = "E15E8026-84DF-4A42-AB03-E490DF4AD233";
paths = (
{
closed = 1;
nodes = (
"361 -508 OFFCURVE",
"363 -508 OFFCURVE",
"364 -507 CURVE",
"381 -483 OFFCURVE",
"397 -462 OFFCURVE",
"412 -442 CURVE SMOOTH",
"427 -422 OFFCURVE",
"442 -405 OFFCURVE",
"455 -386 CURVE SMOOTH",
"483 -345 OFFCURVE",
"488 -261 OFFCURVE",
"444 -232 CURVE",
"440 -234 OFFCURVE",
"439 -239 OFFCURVE",
"441 -248 CURVE SMOOTH",
"443 -257 OFFCURVE",
"443 -267 OFFCURVE",
"442 -279 CURVE",
"433 -317 OFFCURVE",
"421 -346 OFFCURVE",
"408 -366 CURVE SMOOTH",
"394 -387 OFFCURVE",
"381 -409 OFFCURVE",
"366 -433 CURVE",
"360 -389 OFFCURVE",
"352 -352 OFFCURVE",
"338 -314 CURVE SMOOTH",
"335 -306 OFFCURVE",
"333 -297 OFFCURVE",
"331 -288 CURVE SMOOTH",
"329 -279 OFFCURVE",
"326 -272 OFFCURVE",
"323 -268 CURVE",
"313 -253 OFFCURVE",
"303 -242 OFFCURVE",
"290 -240 CURVE SMOOTH",
"277 -238 OFFCURVE",
"267 -247 OFFCURVE",
"269 -267 CURVE SMOOTH",
"270 -278 OFFCURVE",
"272 -283 OFFCURVE",
"279 -290 CURVE SMOOTH",
"281 -292 OFFCURVE",
"288 -296 OFFCURVE",
"300 -303 CURVE",
"311 -310 OFFCURVE",
"324 -321 OFFCURVE",
"328 -335 CURVE SMOOTH",
"330 -342 OFFCURVE",
"332 -350 OFFCURVE",
"335 -357 CURVE",
"347 -398 OFFCURVE",
"353 -427 OFFCURVE",
"352 -445 CURVE SMOOTH",
"351 -462 OFFCURVE",
"353 -484 OFFCURVE",
"358 -508 CURVE"
);
}
);
width = 806;
}
);
unicode = 0037;
},
{
glyphname = slash;
lastChange = "2019-03-12 05:02:10 +0000";
layers = (
{
components = (
{
name = one;
transform = "{1.15, 0, 0, 1.15, -251, 409}";
}
);
layerId = "E15E8026-84DF-4A42-AB03-E490DF4AD233";
paths = (
{
closed = 1;
nodes = (
"332 174 OFFCURVE",
"347 179 OFFCURVE",
"357 190 CURVE SMOOTH",
"370 204 OFFCURVE",
"370 206 OFFCURVE",
"374 221 CURVE",
"374 221 OFFCURVE",
"374 222 OFFCURVE",
"374 225 CURVE SMOOTH",
"374 232 LINE",
"368 232 OFFCURVE",
"364 232 OFFCURVE",
"365 232 CURVE",
"359 226 LINE",
"352 221 OFFCURVE",
"327 215 OFFCURVE",
"314 215 CURVE SMOOTH",
"303 215 OFFCURVE",
"292 220 OFFCURVE",
"282 230 CURVE",
"270 239 OFFCURVE",
"261 259 OFFCURVE",
"253 289 CURVE SMOOTH",
"198 497 LINE SMOOTH",
"190 527 OFFCURVE",
"170 594 OFFCURVE",
"120 594 CURVE SMOOTH",
"86 594 OFFCURVE",
"51 578 OFFCURVE",
"64 544 CURVE",
"69 526 OFFCURVE",
"106 537 OFFCURVE",
"114 544 CURVE SMOOTH",
"123 552 OFFCURVE",
"142 545 OFFCURVE",
"153 536 CURVE",
"173 518 OFFCURVE",
"180 479 OFFCURVE",
"187 454 CURVE",
"30 183 LINE",
"90 183 LINE",
"206 382 LINE",
"236 269 LINE SMOOTH",
"247 229 OFFCURVE",
"258 203 OFFCURVE",
"270 191 CURVE SMOOTH",
"282 179 OFFCURVE",
"296 174 OFFCURVE",
"312 174 CURVE SMOOTH"
);
}
);
width = 404;
}
);
unicode = 002F;
},
{
glyphname = bracketright;
lastChange = "2019-03-12 04:39:55 +0000";
layers = (
{
layerId = "E15E8026-84DF-4A42-AB03-E490DF4AD233";
paths = (
{
closed = 1;
nodes = (
"394 -1 LINE",
"394 13 LINE",
"359 17 OFFCURVE",
"346 22 OFFCURVE",
"346 66 CURVE SMOOTH",
"346 223 LINE",
"520 223 LINE",
"520 87 LINE SMOOTH",
"520 40 OFFCURVE",
"517 13 OFFCURVE",
"473 13 CURVE",
"473 -1 LINE",
"632 -1 LINE",
"632 13 LINE",
"597 17 OFFCURVE",
"580 40 OFFCURVE",
"580 81 CURVE SMOOTH",
"580 365 LINE SMOOTH",
"580 414 OFFCURVE",
"596 438 OFFCURVE",
"628 438 CURVE",
"628 454 LINE",
"473 454 LINE",
"473 438 LINE",
"504 438 OFFCURVE",
"520 417 OFFCURVE",
"520 376 CURVE SMOOTH",
"520 249 LINE",
"346 249 LINE",
"346 376 LINE SMOOTH",
"346 416 OFFCURVE",
"352 438 OFFCURVE",
"390 438 CURVE",
"390 454 LINE",
"236 454 LINE",
"236 438 LINE",
"271 438 OFFCURVE",
"289 419 OFFCURVE",
"289 381 CURVE SMOOTH",
"289 72 LINE SMOOTH",
"289 24 OFFCURVE",
"273 17 OFFCURVE",
"236 13 CURVE",
"236 -1 LINE"
);
},
{
closed = 1;
nodes = (
"110 309 OFFCURVE",
"118 311 OFFCURVE",
"128 315 CURVE SMOOTH",
"146 322 OFFCURVE",
"162 336 OFFCURVE",
"162 364 CURVE SMOOTH",
"162 391 OFFCURVE",
"136 404 OFFCURVE",
"116 404 CURVE SMOOTH",
"101 404 OFFCURVE",
"93 399 OFFCURVE",
"93 387 CURVE SMOOTH",
"93 357 OFFCURVE",
"127 361 OFFCURVE",
"139 377 CURVE",
"143 374 OFFCURVE",
"145 369 OFFCURVE",
"145 362 CURVE SMOOTH",
"145 345 OFFCURVE",
"134 334 OFFCURVE",
"115 327 CURVE",
"108 325 LINE SMOOTH",
"104 324 OFFCURVE",
"101 324 OFFCURVE",
"100 323 CURVE",
"96 320 OFFCURVE",
"96 312 OFFCURVE",
"102 310 CURVE"
);
},
{
closed = 1;
nodes = (
"30 382 OFFCURVE",
"42 389 OFFCURVE",
"65 405 CURVE SMOOTH",
"88 421 OFFCURVE",
"107 428 OFFCURVE",
"120 428 CURVE SMOOTH",
"144 428 OFFCURVE",
"173 412 OFFCURVE",
"208 382 CURVE",
"191 413 OFFCURVE",
"159 454 OFFCURVE",
"120 454 CURVE SMOOTH",
"91 454 OFFCURVE",
"61 430 OFFCURVE",
"30 382 CURVE"
);
},
{
closed = 1;
nodes = (
"977 -190 OFFCURVE",
"991 -110 OFFCURVE",
"932 -107 CURVE",
"928 -107 OFFCURVE",
"921 -109 OFFCURVE",
"913 -113 CURVE",
"905 -118 OFFCURVE",
"898 -120 OFFCURVE",
"891 -120 CURVE SMOOTH",
"868 -120 OFFCURVE",
"829 -7 OFFCURVE",
"813 37 CURVE",
"926 270 LINE",
"863 270 LINE",
"792 111 LINE",
"785 128 OFFCURVE",
"776 153 OFFCURVE",
"765 186 CURVE SMOOTH",
"754 218 OFFCURVE",
"743 243 OFFCURVE",
"731 258 CURVE SMOOTH",
"720 272 OFFCURVE",
"709 280 OFFCURVE",
"697 280 CURVE SMOOTH",
"681 280 OFFCURVE",
"656 270 OFFCURVE",
"654 248 CURVE SMOOTH",
"652 230 OFFCURVE",
"673 207 OFFCURVE",
"693 219 CURVE SMOOTH",
"703 225 OFFCURVE",
"713 224 OFFCURVE",
"724 215 CURVE SMOOTH",
"739 202 OFFCURVE",
"768 127 OFFCURVE",
"776 84 CURVE",
"652 -178 LINE",
"715 -178 LINE",
"800 11 LINE",
"815 -40 OFFCURVE",
"844 -113 OFFCURVE",
"869 -157 CURVE SMOOTH",
"883 -181 OFFCURVE",
"897 -194 OFFCURVE",
"915 -193 CURVE SMOOTH"
);
},
{
closed = 1;
nodes = (
"1156 0 OFFCURVE",
"1204 68 OFFCURVE",
"1204 143 CURVE SMOOTH",
"1204 215 OFFCURVE",
"1154 285 OFFCURVE",
"1079 285 CURVE SMOOTH",
"1004 285 OFFCURVE",
"957 211 OFFCURVE",
"957 140 CURVE SMOOTH",
"957 66 OFFCURVE",
"1004 0 OFFCURVE",
"1081 0 CURVE SMOOTH"
);
},
{
closed = 1;
nodes = (
"987 69 OFFCURVE",
"987 102 OFFCURVE",
"992 123 CURVE SMOOTH",
"1003 170 OFFCURVE",
"1028 205 OFFCURVE",
"1064 230 CURVE SMOOTH",
"1092 249 OFFCURVE",
"1145 257 OFFCURVE",
"1164 218 CURVE SMOOTH",
"1173 199 OFFCURVE",
"1176 163 OFFCURVE",
"1158 126 CURVE SMOOTH",
"1145 100 OFFCURVE",
"1117 72 OFFCURVE",
"1095 56 CURVE SMOOTH",
"1065 34 OFFCURVE",
"1036 34 OFFCURVE",
"1007 55 CURVE SMOOTH"
);
},
{
closed = 1;
nodes = (
"1406 -126 OFFCURVE",
"1432 -122 OFFCURVE",
"1452 -99 CURVE SMOOTH",
"1469 -79 OFFCURVE",
"1482 -48 OFFCURVE",
"1482 -22 CURVE SMOOTH",
"1482 3 OFFCURVE",
"1463 54 OFFCURVE",
"1409 54 CURVE SMOOTH",
"1398 54 OFFCURVE",
"1387 54 OFFCURVE",
"1376 53 CURVE SMOOTH",
"1365 52 OFFCURVE",
"1355 52 OFFCURVE",
"1344 52 CURVE SMOOTH",
"1291 52 OFFCURVE",
"1264 78 OFFCURVE",
"1264 128 CURVE SMOOTH",
"1264 167 OFFCURVE",
"1283 221 OFFCURVE",
"1327 217 CURVE SMOOTH",
"1349 215 OFFCURVE",
"1376 215 OFFCURVE",
"1405 215 CURVE SMOOTH",
"1441 215 OFFCURVE",
"1465 270 OFFCURVE",
"1431 276 CURVE SMOOTH",
"1346 291 OFFCURVE",
"1288 264 OFFCURVE",
"1258 196 CURVE SMOOTH",
"1247 171 OFFCURVE",
"1241 147 OFFCURVE",
"1241 124 CURVE SMOOTH",
"1241 66 OFFCURVE",
"1302 5 OFFCURVE",
"1361 -4 CURVE",
"1370 -6 OFFCURVE",
"1403 -3 OFFCURVE",
"1409 -1 CURVE",
"1438 3 OFFCURVE",
"1454 -13 OFFCURVE",
"1454 -29 CURVE SMOOTH",
"1454 -34 LINE SMOOTH",
"1454 -58 OFFCURVE",
"1442 -70 OFFCURVE",
"1418 -70 CURVE SMOOTH",
"1415 -70 OFFCURVE",
"1413 -69 OFFCURVE",
"1411 -66 CURVE SMOOTH",
"1409 -63 OFFCURVE",
"1406 -62 OFFCURVE",
"1402 -61 CURVE",
"1386 -58 OFFCURVE",
"1376 -57 OFFCURVE",
"1373 -57 CURVE SMOOTH",
"1352 -57 OFFCURVE",
"1342 -68 OFFCURVE",
"1342 -90 CURVE SMOOTH",
"1342 -113 OFFCURVE",
"1363 -126 OFFCURVE",
"1389 -126 CURVE SMOOTH"
);
}
);
width = 1512;
}
);
unicode = 005D;
},
{
glyphname = quotedblleft;
lastChange = "2019-03-12 04:39:55 +0000";
layers = (
{
layerId = "E15E8026-84DF-4A42-AB03-E490DF4AD233";
paths = (
{
closed = 1;
nodes = (
"668 -82 OFFCURVE",
"684 -74 OFFCURVE",
"698 -59 CURVE SMOOTH",
"714 -42 OFFCURVE",
"722 -17 OFFCURVE",
"722 6 CURVE SMOOTH",
"722 27 OFFCURVE",
"717 43 OFFCURVE",
"704 54 CURVE SMOOTH",
"691 65 OFFCURVE",
"678 68 OFFCURVE",
"657 64 CURVE SMOOTH",
"646 62 OFFCURVE",
"637 61 OFFCURVE",
"627 62 CURVE",
"609 62 OFFCURVE",
"593 63 OFFCURVE",
"582 67 CURVE",
"560 72 OFFCURVE",
"539 88 OFFCURVE",
"539 121 CURVE SMOOTH",
"539 137 OFFCURVE",
"543 152 OFFCURVE",
"553 165 CURVE SMOOTH",
"575 194 OFFCURVE",
"615 202 OFFCURVE",
"659 202 CURVE SMOOTH",
"673 202 OFFCURVE",
"683 211 OFFCURVE",
"691 230 CURVE SMOOTH",
"695 239 OFFCURVE",
"699 254 OFFCURVE",
"682 259 CURVE",
"669 262 OFFCURVE",
"660 262 OFFCURVE",
"650 262 CURVE SMOOTH",
"617 262 OFFCURVE",
"552 232 OFFCURVE",
"531 183 CURVE SMOOTH",
"522 162 OFFCURVE",
"520 135 OFFCURVE",
"520 117 CURVE SMOOTH",
"520 94 OFFCURVE",
"530 73 OFFCURVE",
"551 51 CURVE",
"572 33 OFFCURVE",
"594 22 OFFCURVE",
"620 18 CURVE",
"641 18 LINE",
"664 22 OFFCURVE",
"680 22 OFFCURVE",
"690 18 CURVE",
"696 12 OFFCURVE",
"699 6 OFFCURVE",
"699 -1 CURVE SMOOTH",
"699 -4 LINE SMOOTH",
"699 -25 OFFCURVE",
"687 -44 OFFCURVE",
"668 -44 CURVE SMOOTH",
"665 -44 OFFCURVE",
"661 -42 OFFCURVE",
"657 -40 CURVE SMOOTH",
"653 -38 OFFCURVE",
"647 -35 OFFCURVE",
"640 -34 CURVE SMOOTH",
"622 -31 OFFCURVE",
"603 -34 OFFCURVE",
"604 -52 CURVE SMOOTH",
"605 -66 OFFCURVE",
"630 -82 OFFCURVE",
"649 -82 CURVE SMOOTH"
);
},
{
closed = 1;
nodes = (
"184 13 OFFCURVE",
"194 18 OFFCURVE",
"202 27 CURVE",
"213 38 OFFCURVE",
"222 54 OFFCURVE",
"213 79 CURVE SMOOTH",
"208 93 OFFCURVE",
"190 90 OFFCURVE",
"176 81 CURVE SMOOTH",
"171 78 OFFCURVE",
"164 77 OFFCURVE",
"155 76 CURVE SMOOTH",
"136 74 OFFCURVE",
"137 108 OFFCURVE",
"137 128 CURVE SMOOTH",
"137 137 OFFCURVE",
"138 150 OFFCURVE",
"139 165 CURVE SMOOTH",
"140 177 OFFCURVE",
"146 215 OFFCURVE",
"160 218 CURVE",
"222 218 LINE",
"227 217 OFFCURVE",
"229 219 OFFCURVE",
"230 223 CURVE",
"235 262 LINE",
"106 262 LINE SMOOTH",
"87 262 OFFCURVE",
"73 258 OFFCURVE",
"63 250 CURVE SMOOTH",
"45 236 OFFCURVE",
"42 220 OFFCURVE",
"30 186 CURVE",
"39 186 LINE",
"55 215 OFFCURVE",
"69 224 OFFCURVE",
"98 222 CURVE SMOOTH",
"129 220 LINE",
"117 185 OFFCURVE",
"112 150 OFFCURVE",
"112 129 CURVE SMOOTH",
"112 118 OFFCURVE",
"113 109 OFFCURVE",
"113 101 CURVE SMOOTH",
"113 84 OFFCURVE",
"115 70 OFFCURVE",
"119 58 CURVE SMOOTH",
"127 35 OFFCURVE",
"138 13 OFFCURVE",
"170 13 CURVE SMOOTH"
);
},
{
closed = 1;
nodes = (
"435 13 OFFCURVE",
"480 72 OFFCURVE",
"480 137 CURVE SMOOTH",
"480 201 OFFCURVE",
"436 262 OFFCURVE",
"370 262 CURVE SMOOTH",
"306 262 OFFCURVE",
"264 198 OFFCURVE",
"264 135 CURVE SMOOTH",
"264 71 OFFCURVE",
"306 13 OFFCURVE",
"372 13 CURVE SMOOTH"
);
},
{
closed = 1;
nodes = (
"293 69 OFFCURVE",
"292 99 OFFCURVE",
"296 118 CURVE SMOOTH",
"305 159 OFFCURVE",
"324 191 OFFCURVE",
"355 213 CURVE SMOOTH",
"365 220 OFFCURVE",
"376 225 OFFCURVE",
"390 228 CURVE SMOOTH",
"416 234 OFFCURVE",
"448 218 OFFCURVE",
"448 180 CURVE SMOOTH",
"448 161 OFFCURVE",
"445 144 OFFCURVE",
"439 130 CURVE SMOOTH",
"429 107 OFFCURVE",
"406 76 OFFCURVE",
"388 62 CURVE",
"365 46 OFFCURVE",
"336 41 OFFCURVE",
"310 58 CURVE SMOOTH"
);
}
);
width = 752;
}
);
unicode = 201C;
},
{
glyphname = bar;
lastChange = "2019-03-12 04:39:55 +0000";
layers = (
{
layerId = "E15E8026-84DF-4A42-AB03-E490DF4AD233";
paths = (
{
closed = 1;
nodes = (
"-334 280 OFFCURVE",
"-331 284 OFFCURVE",
"-331 290 CURVE SMOOTH",
"-331 547 LINE SMOOTH",
"-331 560 OFFCURVE",
"-360 560 OFFCURVE",
"-360 547 CURVE SMOOTH",
"-360 290 LINE SMOOTH",
"-360 284 OFFCURVE",
"-356 280 OFFCURVE",
"-345 280 CURVE SMOOTH"
);
}
);
width = 0;
}
);
unicode = 007C;
},
{
glyphname = grave;
lastChange = "2019-03-12 04:49:46 +0000";
layers = (
{
layerId = "E15E8026-84DF-4A42-AB03-E490DF4AD233";
paths = (
{
closed = 1;
nodes = (
"-164 -144 LINE",
"-119 -49 LINE",
"-94 4 LINE",
"-92 10 OFFCURVE",
"-91 16 OFFCURVE",
"-91 21 CURVE SMOOTH",
"-91 27 OFFCURVE",
"-93 33 OFFCURVE",
"-98 37 CURVE",
"-103 42 OFFCURVE",
"-109 44 OFFCURVE",
"-116 44 CURVE SMOOTH",
"-126 44 OFFCURVE",
"-135 41 OFFCURVE",
"-143 34 CURVE",
"-159 22 OFFCURVE",
"-163 4 OFFCURVE",
"-169 -49 CURVE SMOOTH",
"-179 -144 LINE"
);
}
);
width = 0;
}
);
unicode = 0060;
},
{
export = 0;
glyphname = apostrophoi;
lastChange = "2019-03-12 04:39:55 +0000";
layers = (
{
layerId = "E15E8026-84DF-4A42-AB03-E490DF4AD233";
paths = (
{
closed = 1;
nodes = (
"268 -132 OFFCURVE",
"258 -141 OFFCURVE",
"258 -160 CURVE SMOOTH",
"258 -179 OFFCURVE",
"268 -188 OFFCURVE",
"287 -188 CURVE SMOOTH",
"306 -188 OFFCURVE",
"315 -179 OFFCURVE",
"315 -160 CURVE SMOOTH",
"315 -141 OFFCURVE",
"306 -132 OFFCURVE",
"287 -132 CURVE SMOOTH"
);
},
{
closed = 1;
nodes = (
"394 -132 OFFCURVE",
"384 -141 OFFCURVE",
"384 -160 CURVE SMOOTH",
"384 -179 OFFCURVE",
"394 -188 OFFCURVE",
"413 -188 CURVE SMOOTH",
"432 -188 OFFCURVE",
"441 -179 OFFCURVE",
"441 -160 CURVE SMOOTH",
"441 -141 OFFCURVE",
"432 -132 OFFCURVE",
"413 -132 CURVE SMOOTH"
);
}
);
width = 600;
}
);
},
{
export = 0;
glyphname = ex;
lastChange = "2019-03-12 04:39:55 +0000";
layers = (
{
layerId = "E15E8026-84DF-4A42-AB03-E490DF4AD233";
paths = (
{
closed = 1;
nodes = (
"139 -256 OFFCURVE",
"181 -257 OFFCURVE",
"208 -245 CURVE",
"316 -15 LINE",
"318 -46 OFFCURVE",
"322 -70 OFFCURVE",
"328 -89 CURVE SMOOTH",
"351 -162 OFFCURVE",
"355 -174 OFFCURVE",
"376 -210 CURVE SMOOTH",
"414 -274 OFFCURVE",
"492 -271 OFFCURVE",
"510 -232 CURVE SMOOTH",
"518 -215 OFFCURVE",
"526 -195 OFFCURVE",
"510 -173 CURVE SMOOTH",
"497 -156 OFFCURVE",
"468 -161 OFFCURVE",
"448 -173 CURVE SMOOTH",
"423 -188 OFFCURVE",
"390 -180 OFFCURVE",
"363 -114 CURVE SMOOTH",
"345 -70 OFFCURVE",
"338 -30 OFFCURVE",
"333 27 CURVE",
"355 76 OFFCURVE",
"377 123 OFFCURVE",
"400 168 CURVE SMOOTH",
"423 213 OFFCURVE",
"446 259 OFFCURVE",
"469 308 CURVE",
"451 313 OFFCURVE",
"419 314 OFFCURVE",
"389 308 CURVE SMOOTH",
"367 262 OFFCURVE",
"350 224 OFFCURVE",
"336 193 CURVE SMOOTH",
"322 162 OFFCURVE",
"305 124 OFFCURVE",
"284 79 CURVE",
"273 137 OFFCURVE",
"253 219 OFFCURVE",
"225 275 CURVE SMOOTH",
"222 281 OFFCURVE",
"216 288 OFFCURVE",
"208 295 CURVE SMOOTH",
"192 309 OFFCURVE",
"176 309 OFFCURVE",
"154 304 CURVE SMOOTH",
"132 299 OFFCURVE",
"122 272 OFFCURVE",
"130 248 CURVE SMOOTH",
"138 225 OFFCURVE",
"159 225 OFFCURVE",
"175 227 CURVE SMOOTH",
"182 228 OFFCURVE",
"191 228 OFFCURVE",
"200 228 CURVE SMOOTH",
"219 228 OFFCURVE",
"228 192 OFFCURVE",
"235 168 CURVE SMOOTH",
"249 119 OFFCURVE",
"266 47 OFFCURVE",
"258 27 CURVE SMOOTH",
"240 -17 OFFCURVE",
"217 -62 OFFCURVE",
"190 -111 CURVE SMOOTH",
"173 -143 OFFCURVE",
"126 -233 OFFCURVE",
"126 -238 CURVE SMOOTH",
"126 -241 OFFCURVE",
"126 -243 OFFCURVE",
"128 -245 CURVE SMOOTH"
);
}
);
width = 604;
}
);
},
{
export = 0;
glyphname = digorgon;
lastChange = "2019-03-12 04:39:55 +0000";
layers = (
{
layerId = "E15E8026-84DF-4A42-AB03-E490DF4AD233";
paths = (
{
closed = 1;
nodes = (
"-198 -152 LINE SMOOTH",
"-195 -152 OFFCURVE",
"-196 -148 OFFCURVE",
"-196 -106 CURVE SMOOTH",
"-196 -76 OFFCURVE",
"-197 -46 OFFCURVE",
"-196 -17 CURVE",
"13 -17 LINE SMOOTH",
"34 -17 OFFCURVE",
"31 -19 OFFCURVE",
"31 31 CURVE SMOOTH",
"31 61 OFFCURVE",
"30 90 OFFCURVE",
"31 120 CURVE",
"236 120 LINE SMOOTH",
"250 120 OFFCURVE",
"250 151 OFFCURVE",
"236 151 CURVE SMOOTH",
"-19 151 LINE",
"-25 150 OFFCURVE",
"-28 146 OFFCURVE",
"-28 138 CURVE SMOOTH",
"-28 115 OFFCURVE",
"-29 93 OFFCURVE",
"-29 74 CURVE SMOOTH",
"-29 54 OFFCURVE",
"-30 35 OFFCURVE",
"-30 14 CURVE",
"-245 14 LINE SMOOTH",
"-253 14 OFFCURVE",
"-253 9 OFFCURVE",
"-253 2 CURVE SMOOTH",
"-253 -70 LINE SMOOTH",
"-253 -84 OFFCURVE",
"-254 -108 OFFCURVE",
"-254 -142 CURVE SMOOTH",
"-254 -149 OFFCURVE",
"-255 -152 OFFCURVE",
"-251 -152 CURVE SMOOTH"
);
}
);
width = 0;
}
);
},
{
export = 0;
glyphname = gorgon;
lastChange = "2019-03-12 04:39:55 +0000";
layers = (
{
layerId = "E15E8026-84DF-4A42-AB03-E490DF4AD233";
paths = (
{
closed = 1;
nodes = (
"-99 -80 LINE",
"-73 -80 LINE SMOOTH",
"-70 -80 OFFCURVE",
"-71 -75 OFFCURVE",
"-71 -69 CURVE",
"-72 49 LINE",
"-34 49 OFFCURVE",
"5 49 OFFCURVE",
"43 49 CURVE SMOOTH",
"117 49 LINE SMOOTH",
"124 49 OFFCURVE",
"124 80 OFFCURVE",
"117 80 CURVE SMOOTH",
"109 80 OFFCURVE",
"43 80 OFFCURVE",
"4 80 CURVE SMOOTH",
"-114 80 LINE SMOOTH",
"-121 80 OFFCURVE",
"-122 73 OFFCURVE",
"-122 67 CURVE SMOOTH",
"-122 -2 LINE SMOOTH",
"-122 -19 OFFCURVE",
"-123 -42 OFFCURVE",
"-123 -69 CURVE SMOOTH",
"-123 -75 OFFCURVE",
"-124 -80 OFFCURVE",
"-119 -80 CURVE SMOOTH"
);
}
);
width = 0;
}
);
},
{
export = 0;
glyphname = trigorgon;
lastChange = "2019-03-12 04:39:55 +0000";
layers = (
{
layerId = "E15E8026-84DF-4A42-AB03-E490DF4AD233";
paths = (
{
closed = 1;
nodes = (
"312 280 LINE",
"194 280 LINE SMOOTH",
"187 280 OFFCURVE",
"186 273 OFFCURVE",
"186 267 CURVE SMOOTH",
"186 198 LINE SMOOTH",
"186 185 OFFCURVE",
"185 169 OFFCURVE",
"185 151 CURVE",
"-19 151 LINE",
"-25 150 OFFCURVE",
"-28 146 OFFCURVE",
"-28 138 CURVE SMOOTH",
"-28 115 OFFCURVE",
"-29 93 OFFCURVE",
"-29 74 CURVE SMOOTH",
"-29 54 OFFCURVE",
"-30 35 OFFCURVE",
"-30 14 CURVE",
"-245 14 LINE SMOOTH",
"-253 14 OFFCURVE",
"-253 9 OFFCURVE",
"-253 2 CURVE SMOOTH",
"-253 -70 LINE SMOOTH",
"-253 -84 OFFCURVE",
"-254 -108 OFFCURVE",
"-254 -142 CURVE SMOOTH",
"-254 -149 OFFCURVE",
"-255 -152 OFFCURVE",
"-251 -152 CURVE SMOOTH",
"-198 -152 LINE SMOOTH",
"-195 -152 OFFCURVE",
"-196 -148 OFFCURVE",
"-196 -106 CURVE SMOOTH",
"-196 -76 OFFCURVE",
"-197 -46 OFFCURVE",
"-196 -17 CURVE",
"13 -17 LINE SMOOTH",
"34 -17 OFFCURVE",
"31 -19 OFFCURVE",
"31 31 CURVE SMOOTH",
"31 61 OFFCURVE",
"30 90 OFFCURVE",
"31 120 CURVE",
"227 120 LINE SMOOTH",
"238 120 OFFCURVE",
"237 125 OFFCURVE",
"237 150 CURVE",
"236 249 LINE",
"351 249 LINE",
"425 249 LINE SMOOTH",
"432 249 OFFCURVE",
"432 280 OFFCURVE",
"425 280 CURVE SMOOTH"
);
}
);
width = 0;
}
);
},
{
export = 0;
glyphname = heme;
lastChange = "2019-03-12 04:39:55 +0000";
layers = (
{
layerId = "E15E8026-84DF-4A42-AB03-E490DF4AD233";
paths = (
{
closed = 1;
nodes = (
"247 -152 OFFCURVE",
"246 -149 OFFCURVE",
"246 -142 CURVE SMOOTH",
"246 -108 OFFCURVE",
"245 -84 OFFCURVE",
"245 -70 CURVE SMOOTH",
"245 2 LINE SMOOTH",
"245 9 OFFCURVE",
"245 14 OFFCURVE",
"237 14 CURVE SMOOTH",
"22 14 LINE",
"22 35 OFFCURVE",
"20 93 OFFCURVE",
"20 120 CURVE SMOOTH",
"20 138 OFFCURVE",
"-39 138 OFFCURVE",
"-39 120 CURVE SMOOTH",
"-39 93 OFFCURVE",
"-39 61 OFFCURVE",
"-39 31 CURVE SMOOTH",
"-39 -19 OFFCURVE",
"-42 -17 OFFCURVE",
"-21 -17 CURVE SMOOTH",
"188 -17 LINE",
"189 -46 OFFCURVE",
"188 -76 OFFCURVE",
"188 -106 CURVE SMOOTH",
"188 -148 OFFCURVE",
"187 -152 OFFCURVE",
"190 -152 CURVE SMOOTH",
"243 -152 LINE SMOOTH"
);
}
);
width = 0;
}
);
},
{
export = 0;
glyphname = oligon;
lastChange = "2019-03-12 04:39:55 +0000";
layers = (
{
layerId = "E15E8026-84DF-4A42-AB03-E490DF4AD233";
paths = (
{
closed = 1;
nodes = (
"1183 -16 OFFCURVE",
"1189 -14 OFFCURVE",
"1192 -7 CURVE SMOOTH",
"1201 13 OFFCURVE",
"1182 34 OFFCURVE",
"1160 56 CURVE SMOOTH",
"1138 78 OFFCURVE",
"1131 84 OFFCURVE",
"1109 96 CURVE SMOOTH",
"1087 108 OFFCURVE",
"1061 112 OFFCURVE",
"1028 112 CURVE SMOOTH",
"136 112 LINE SMOOTH",
"118 112 OFFCURVE",
"104 113 OFFCURVE",
"94 115 CURVE SMOOTH",
"74 119 OFFCURVE",
"63 125 OFFCURVE",
"54 131 CURVE SMOOTH",
"51 133 OFFCURVE",
"46 135 OFFCURVE",
"42 135 CURVE SMOOTH",
"35 135 OFFCURVE",
"26 122 OFFCURVE",
"31 113 CURVE SMOOTH",
"34 108 OFFCURVE",
"40 100 OFFCURVE",
"49 88 CURVE SMOOTH",
"67 65 OFFCURVE",
"85 46 OFFCURVE",
"100 36 CURVE SMOOTH",
"116 26 OFFCURVE",
"130 19 OFFCURVE",
"142 15 CURVE SMOOTH",
"155 11 OFFCURVE",
"177 7 OFFCURVE",
"204 7 CURVE SMOOTH",
"1083 7 LINE SMOOTH",
"1103 7 OFFCURVE",
"1118 6 OFFCURVE",
"1128 5 CURVE SMOOTH",
"1147 3 OFFCURVE",
"1164 -3 OFFCURVE",
"1177 -12 CURVE SMOOTH"
);
}
);
width = 1224;
}
);
},
{
export = 0;
glyphname = kentima_short;
lastChange = "2019-03-12 04:39:55 +0000";
layers = (
{
layerId = "E15E8026-84DF-4A42-AB03-E490DF4AD233";
paths = (
{
closed = 1;
nodes = (
"236 -22 OFFCURVE",
"225 -1 OFFCURVE",
"215 1 CURVE SMOOTH",
"204 3 OFFCURVE",
"202 3 OFFCURVE",
"193 16 CURVE SMOOTH",
"182 32 OFFCURVE",
"167 63 OFFCURVE",
"154 93 CURVE SMOOTH",
"141 123 OFFCURVE",
"132 140 OFFCURVE",
"119 141 CURVE SMOOTH",
"84 144 OFFCURVE",
"41 143 OFFCURVE",
"2 143 CURVE SMOOTH",
"-21 143 OFFCURVE",
"-16 119 OFFCURVE",
"2 116 CURVE SMOOTH",
"15 114 OFFCURVE",
"17 113 OFFCURVE",
"22 103 CURVE SMOOTH",
"43 61 OFFCURVE",
"60 23 OFFCURVE",
"66 12 CURVE SMOOTH",
"78 -10 OFFCURVE",
"80 -17 OFFCURVE",
"99 -19 CURVE SMOOTH",
"125 -22 OFFCURVE",
"164 -22 OFFCURVE",
"208 -22 CURVE SMOOTH"
);
}
);
width = 256;
}
);
},
{
export = 0;
glyphname = hypsele;
lastChange = "2019-03-12 04:39:55 +0000";
layers = (
{
layerId = "E15E8026-84DF-4A42-AB03-E490DF4AD233";
paths = (
{
closed = 1;
nodes = (
"166 199 OFFCURVE",
"189 236 OFFCURVE",
"137 256 CURVE SMOOTH",
"111 266 OFFCURVE",
"92 284 OFFCURVE",
"81 310 CURVE",
"126 310 OFFCURVE",
"191 322 OFFCURVE",
"254 350 CURVE SMOOTH",
"295 368 OFFCURVE",
"321 394 OFFCURVE",
"353 480 CURVE SMOOTH",
"369 523 OFFCURVE",
"387 579 OFFCURVE",
"406 648 CURVE SMOOTH",
"414 677 OFFCURVE",
"423 706 OFFCURVE",
"431 732 CURVE SMOOTH",
"439 759 OFFCURVE",
"448 774 OFFCURVE",
"460 778 CURVE",
"481 780 OFFCURVE",
"484 803 OFFCURVE",
"465 806 CURVE",
"417 800 LINE SMOOTH",
"403 798 OFFCURVE",
"390 797 OFFCURVE",
"379 794 CURVE SMOOTH",
"356 788 OFFCURVE",
"328 769 OFFCURVE",
"314 737 CURVE SMOOTH",
"307 721 OFFCURVE",
"299 690 OFFCURVE",
"290 644 CURVE SMOOTH",
"281 597 OFFCURVE",
"272 562 OFFCURVE",
"267 537 CURVE SMOOTH",
"257 488 OFFCURVE",
"238 435 OFFCURVE",
"218 394 CURVE SMOOTH",
"198 353 OFFCURVE",
"156 337 OFFCURVE",
"127 332 CURVE SMOOTH",
"99 327 OFFCURVE",
"71 330 OFFCURVE",
"48 335 CURVE SMOOTH",
"36 338 OFFCURVE",
"20 333 OFFCURVE",
"30 317 CURVE SMOOTH",
"42 297 OFFCURVE",
"66 272 OFFCURVE",
"99 248 CURVE SMOOTH"
);
}
);
width = 508;
}
);
},
{
export = 0;
glyphname = apostrophoi_wide;
lastChange = "2019-03-12 04:39:55 +0000";
layers = (
{
layerId = "E15E8026-84DF-4A42-AB03-E490DF4AD233";
paths = (
{
closed = 1;
nodes = (
"178 -132 OFFCURVE",
"168 -141 OFFCURVE",
"168 -160 CURVE SMOOTH",
"168 -179 OFFCURVE",
"178 -188 OFFCURVE",
"197 -188 CURVE SMOOTH",
"216 -188 OFFCURVE",
"225 -179 OFFCURVE",
"225 -160 CURVE SMOOTH",
"225 -141 OFFCURVE",
"216 -132 OFFCURVE",
"197 -132 CURVE SMOOTH"
);
},
{
closed = 1;
nodes = (
"394 -132 OFFCURVE",
"384 -141 OFFCURVE",
"384 -160 CURVE SMOOTH",
"384 -179 OFFCURVE",
"394 -188 OFFCURVE",
"413 -188 CURVE SMOOTH",
"432 -188 OFFCURVE",
"441 -179 OFFCURVE",
"441 -160 CURVE SMOOTH",
"441 -141 OFFCURVE",
"432 -132 OFFCURVE",
"413 -132 CURVE SMOOTH"
);
}
);
width = 600;
}
);
},
{
export = 0;
glyphname = barus_text;
lastChange = "2019-03-12 04:39:55 +0000";
layers = (
{
layerId = "E15E8026-84DF-4A42-AB03-E490DF4AD233";
paths = (
{
closed = 1;
nodes = (
"1361 306 OFFCURVE",
"1303 279 OFFCURVE",
"1272 211 CURVE SMOOTH",
"1260 185 OFFCURVE",
"1256 161 OFFCURVE",
"1256 139 CURVE SMOOTH",
"1256 81 OFFCURVE",
"1316 19 OFFCURVE",
"1375 10 CURVE",
"1384 9 OFFCURVE",
"1417 12 OFFCURVE",
"1423 14 CURVE",
"1452 17 OFFCURVE",
"1468 2 OFFCURVE",
"1468 -15 CURVE SMOOTH",
"1468 -19 LINE SMOOTH",
"1468 -43 OFFCURVE",
"1456 -56 OFFCURVE",
"1432 -56 CURVE SMOOTH",
"1430 -56 OFFCURVE",
"1427 -54 OFFCURVE",
"1425 -52 CURVE SMOOTH",
"1422 -49 OFFCURVE",
"1420 -47 OFFCURVE",
"1416 -46 CURVE",
"1400 -44 OFFCURVE",
"1390 -42 OFFCURVE",
"1387 -42 CURVE SMOOTH",
"1366 -42 OFFCURVE",
"1356 -54 OFFCURVE",
"1356 -76 CURVE SMOOTH",
"1356 -97 OFFCURVE",
"1377 -111 OFFCURVE",
"1403 -111 CURVE SMOOTH",
"1421 -111 OFFCURVE",
"1447 -107 OFFCURVE",
"1467 -84 CURVE SMOOTH",
"1486 -63 OFFCURVE",
"1496 -34 OFFCURVE",
"1496 -7 CURVE SMOOTH",
"1496 18 OFFCURVE",
"1478 68 OFFCURVE",
"1423 68 CURVE SMOOTH",
"1412 68 OFFCURVE",
"1401 68 OFFCURVE",
"1391 68 CURVE SMOOTH",
"1380 68 OFFCURVE",
"1369 67 OFFCURVE",
"1359 67 CURVE SMOOTH",
"1305 67 OFFCURVE",
"1279 92 OFFCURVE",
"1279 143 CURVE SMOOTH",
"1279 182 OFFCURVE",
"1297 236 OFFCURVE",
"1341 232 CURVE SMOOTH",
"1363 230 OFFCURVE",
"1390 229 OFFCURVE",
"1420 229 CURVE SMOOTH",
"1455 229 OFFCURVE",
"1479 285 OFFCURVE",
"1446 291 CURVE SMOOTH"
);
},
{
closed = 1;
nodes = (
"30 297 OFFCURVE",
"31 243 OFFCURVE",
"31 197 CURVE SMOOTH",
"31 174 OFFCURVE",
"30 154 OFFCURVE",
"30 138 CURVE SMOOTH",
"30 122 OFFCURVE",
"30 114 OFFCURVE",
"30 114 CURVE",
"31 77 OFFCURVE",
"31 42 OFFCURVE",
"31 9 CURVE SMOOTH",
"31 -24 OFFCURVE",
"30 -57 OFFCURVE",
"31 -89 CURVE SMOOTH",
"33 -139 OFFCURVE",
"54 -159 OFFCURVE",
"75 -159 CURVE SMOOTH",
"99 -159 OFFCURVE",
"110 -140 OFFCURVE",
"107 -103 CURVE",
"104 -79 OFFCURVE",
"99 -63 OFFCURVE",
"94 -57 CURVE",
"89 -51 OFFCURVE",
"85 -44 OFFCURVE",
"83 -34 CURVE SMOOTH",
"74 11 OFFCURVE",
"69 45 OFFCURVE",
"67 68 CURVE SMOOTH",
"63 113 OFFCURVE",
"55 166 OFFCURVE",
"57 248 CURVE SMOOTH",
"58 289 OFFCURVE",
"59 316 OFFCURVE",
"59 329 CURVE",
"57 350 OFFCURVE",
"75 387 OFFCURVE",
"96 412 CURVE SMOOTH",
"116 436 OFFCURVE",
"147 457 OFFCURVE",
"171 454 CURVE SMOOTH",
"223 448 OFFCURVE",
"251 424 OFFCURVE",
"258 379 CURVE SMOOTH",
"262 352 OFFCURVE",
"226 330 OFFCURVE",
"204 312 CURVE",
"197 316 OFFCURVE",
"189 323 OFFCURVE",
"175 323 CURVE SMOOTH",
"150 323 OFFCURVE",
"137 315 OFFCURVE",
"136 295 CURVE",
"136 274 OFFCURVE",
"146 264 OFFCURVE",
"167 264 CURVE SMOOTH",
"184 264 OFFCURVE",
"197 264 OFFCURVE",
"213 273 CURVE",
"219 269 OFFCURVE",
"226 263 OFFCURVE",
"234 255 CURVE",
"259 225 OFFCURVE",
"275 211 OFFCURVE",
"262 153 CURVE SMOOTH",
"253 114 OFFCURVE",
"207 62 OFFCURVE",
"176 49 CURVE SMOOTH",
"145 36 OFFCURVE",
"127 46 OFFCURVE",
"115 53 CURVE",
"103 58 OFFCURVE",
"96 58 OFFCURVE",
"92 50 CURVE",
"91 46 OFFCURVE",
"100 39 OFFCURVE",
"119 28 CURVE SMOOTH",
"138 17 OFFCURVE",
"160 10 OFFCURVE",
"185 10 CURVE SMOOTH",
"223 10 OFFCURVE",
"255 23 OFFCURVE",
"282 47 CURVE",
"307 75 OFFCURVE",
"320 107 OFFCURVE",
"320 145 CURVE SMOOTH",
"320 160 OFFCURVE",
"318 173 OFFCURVE",
"314 182 CURVE SMOOTH",
"305 201 OFFCURVE",
"288 233 OFFCURVE",
"263 256 CURVE SMOOTH",
"250 268 OFFCURVE",
"239 278 OFFCURVE",
"230 286 CURVE",
"263 310 OFFCURVE",
"294 346 OFFCURVE",
"281 390 CURVE",
"268 455 OFFCURVE",
"209 479 OFFCURVE",
"161 479 CURVE SMOOTH",
"130 479 OFFCURVE",
"99 461 OFFCURVE",
"78 440 CURVE SMOOTH",
"48 410 OFFCURVE",
"32 374 OFFCURVE",
"31 329 CURVE SMOOTH"
);
},
{
closed = 1;
nodes = (
"705 -10 OFFCURVE",
"707 -54 OFFCURVE",
"708 -102 CURVE SMOOTH",
"709 -139 OFFCURVE",
"721 -158 OFFCURVE",
"747 -158 CURVE SMOOTH",
"757 -158 OFFCURVE",
"766 -153 OFFCURVE",
"771 -143 CURVE SMOOTH",
"781 -122 OFFCURVE",
"775 -80 OFFCURVE",
"757 -62 CURVE SMOOTH",
"748 -53 OFFCURVE",
"744 -43 OFFCURVE",
"742 -34 CURVE",
"738 -17 OFFCURVE",
"735 -3 OFFCURVE",
"734 9 CURVE SMOOTH",
"733 20 OFFCURVE",
"732 34 OFFCURVE",
"731 51 CURVE",
"754 24 OFFCURVE",
"784 10 OFFCURVE",
"820 10 CURVE SMOOTH",
"896 10 OFFCURVE",
"945 78 OFFCURVE",
"945 154 CURVE SMOOTH",
"945 227 OFFCURVE",
"895 298 OFFCURVE",
"818 298 CURVE SMOOTH",
"743 298 OFFCURVE",
"698 225 OFFCURVE",
"698 153 CURVE SMOOTH",
"698 134 OFFCURVE",
"699 114 OFFCURVE",
"702 95 CURVE SMOOTH",
"705 76 OFFCURVE",
"705 56 OFFCURVE",
"705 37 CURVE SMOOTH"
);
},
{
closed = 1;
nodes = (
"726 81 OFFCURVE",
"726 114 OFFCURVE",
"731 135 CURVE SMOOTH",
"742 182 OFFCURVE",
"767 218 OFFCURVE",
"803 242 CURVE SMOOTH",
"832 261 OFFCURVE",
"885 270 OFFCURVE",
"904 230 CURVE SMOOTH",
"913 211 OFFCURVE",
"917 175 OFFCURVE",
"899 138 CURVE SMOOTH",
"886 111 OFFCURVE",
"857 82 OFFCURVE",
"834 66 CURVE SMOOTH",
"809 48 OFFCURVE",
"774 45 OFFCURVE",
"746 66 CURVE SMOOTH"
);
},
{
closed = 1;
nodes = (
"963 298 OFFCURVE",
"957 272 OFFCURVE",
"962 257 CURVE",
"964 250 OFFCURVE",
"967 243 OFFCURVE",
"972 238 CURVE",
"982 227 OFFCURVE",
"994 220 OFFCURVE",
"992 181 CURVE SMOOTH",
"991 161 OFFCURVE",
"990 145 OFFCURVE",
"990 132 CURVE SMOOTH",
"990 70 OFFCURVE",
"1020 10 OFFCURVE",
"1093 10 CURVE SMOOTH",
"1171 10 OFFCURVE",
"1218 70 OFFCURVE",
"1218 155 CURVE SMOOTH",
"1218 179 OFFCURVE",
"1213 203 OFFCURVE",
"1203 227 CURVE SMOOTH",
"1184 273 OFFCURVE",
"1165 290 OFFCURVE",
"1135 299 CURVE",
"1131 287 LINE",
"1160 262 OFFCURVE",
"1161 235 OFFCURVE",
"1164 182 CURVE SMOOTH",
"1167 134 OFFCURVE",
"1151 35 OFFCURVE",
"1086 35 CURVE SMOOTH",
"1027 35 OFFCURVE",
"1006 92 OFFCURVE",
"1019 206 CURVE SMOOTH",
"1021 224 OFFCURVE",
"1022 240 OFFCURVE",
"1022 253 CURVE SMOOTH",
"1022 279 OFFCURVE",
"1007 302 OFFCURVE",
"984 300 CURVE SMOOTH"
);
},
{
closed = 1;
nodes = (
"1120 371 LINE SMOOTH",
"1137 388 OFFCURVE",
"1146 405 OFFCURVE",
"1146 423 CURVE SMOOTH",
"1146 433 OFFCURVE",
"1143 438 OFFCURVE",
"1136 438 CURVE SMOOTH",
"1127 438 OFFCURVE",
"1116 427 OFFCURVE",
"1103 406 CURVE SMOOTH",
"1047 315 LINE",
"1068 319 LINE"
);
},
{
closed = 1;
nodes = (
"375 75 OFFCURVE",
"373 114 OFFCURVE",
"379 152 CURVE SMOOTH",
"385 189 OFFCURVE",
"407 213 OFFCURVE",
"428 227 CURVE SMOOTH",
"454 244 OFFCURVE",
"512 261 OFFCURVE",
"530 225 CURVE SMOOTH",
"539 207 OFFCURVE",
"539 176 OFFCURVE",
"535 163 CURVE",
"526 137 OFFCURVE",
"493 89 OFFCURVE",
"474 73 CURVE SMOOTH",
"452 54 OFFCURVE",
"419 41 OFFCURVE",
"392 62 CURVE"
);
},
{
closed = 1;
nodes = (
"583 274 OFFCURVE",
"576 262 OFFCURVE",
"571 249 CURVE SMOOTH",
"566 237 OFFCURVE",
"560 223 OFFCURVE",
"554 210 CURVE",
"550 247 OFFCURVE",
"522 284 OFFCURVE",
"484 288 CURVE SMOOTH",
"403 297 OFFCURVE",
"359 212 OFFCURVE",
"353 147 CURVE SMOOTH",
"346 76 OFFCURVE",
"375 11 OFFCURVE",
"446 11 CURVE SMOOTH",
"483 11 OFFCURVE",
"508 37 OFFCURVE",
"553 94 CURVE",
"563 63 OFFCURVE",
"576 39 OFFCURVE",
"592 21 CURVE SMOOTH",
"598 14 OFFCURVE",
"606 11 OFFCURVE",
"617 11 CURVE SMOOTH",
"647 11 OFFCURVE",
"665 51 OFFCURVE",
"663 75 CURVE SMOOTH",
"661 98 OFFCURVE",
"639 105 OFFCURVE",
"623 78 CURVE SMOOTH",
"607 51 OFFCURVE",
"587 68 OFFCURVE",
"580 86 CURVE",
"575 95 OFFCURVE",
"568 115 OFFCURVE",
"568 122 CURVE",
"586 159 OFFCURVE",
"607 208 OFFCURVE",
"616 218 CURVE",
"625 230 OFFCURVE",
"647 267 OFFCURVE",
"647 281 CURVE SMOOTH",
"647 304 OFFCURVE",
"599 303 OFFCURVE",
"591 287 CURVE"
);
}
);
width = 1526;
}
);
},
{
export = 0;
glyphname = barus;
lastChange = "2019-03-12 04:39:55 +0000";
layers = (
{
layerId = "E15E8026-84DF-4A42-AB03-E490DF4AD233";
paths = (
{
closed = 1;
nodes = (
"315 -433 OFFCURVE",
"384 -486 OFFCURVE",
"479 -523 CURVE SMOOTH",
"512 -536 OFFCURVE",
"578 -532 OFFCURVE",
"633 -519 CURVE SMOOTH",
"689 -506 OFFCURVE",
"737 -479 OFFCURVE",
"781 -436 CURVE SMOOTH",
"825 -393 OFFCURVE",
"917 -318 OFFCURVE",
"921 -317 CURVE SMOOTH",
"927 -315 OFFCURVE",
"935 -315 OFFCURVE",
"945 -312 CURVE SMOOTH",
"965 -306 OFFCURVE",
"973 -292 OFFCURVE",
"943 -288 CURVE SMOOTH",
"913 -284 OFFCURVE",
"871 -284 OFFCURVE",
"834 -288 CURVE SMOOTH",
"797 -292 OFFCURVE",
"809 -287 OFFCURVE",
"766 -328 CURVE SMOOTH",
"745 -349 OFFCURVE",
"719 -372 OFFCURVE",
"690 -396 CURVE SMOOTH",
"627 -448 OFFCURVE",
"540 -525 OFFCURVE",
"485 -493 CURVE SMOOTH",
"458 -477 OFFCURVE",
"424 -454 OFFCURVE",
"383 -416 CURVE SMOOTH",
"301 -340 OFFCURVE",
"232 -276 OFFCURVE",
"173 -270 CURVE SMOOTH",
"114 -264 OFFCURVE",
"74 -272 OFFCURVE",
"53 -296 CURVE SMOOTH",
"32 -319 OFFCURVE",
"25 -342 OFFCURVE",
"33 -380 CURVE SMOOTH",
"43 -429 OFFCURVE",
"115 -447 OFFCURVE",
"167 -421 CURVE SMOOTH",
"181 -414 OFFCURVE",
"195 -406 OFFCURVE",
"208 -396 CURVE",
"222 -386 OFFCURVE",
"236 -375 OFFCURVE",
"253 -364 CURVE"
);
},
{
closed = 1;
nodes = (
"199 -361 OFFCURVE",
"170 -373 OFFCURVE",
"145 -377 CURVE SMOOTH",
"95 -385 OFFCURVE",
"55 -320 OFFCURVE",
"103 -299 CURVE SMOOTH",
"151 -278 OFFCURVE",
"189 -300 OFFCURVE",
"207 -316 CURVE SMOOTH",
"218 -326 OFFCURVE",
"224 -334 OFFCURVE",
"233 -341 CURVE"
);
}
